<svg width="1440" height="320" viewBox="0 0 1440 320" fill="none" xmlns="http://www.w3.org/2000/svg">
<g clip-path="url(#clip0_0_1)">
<path d="M1440 0H0V320H1440V0Z" fill="#151418"/>
<path d="M0 64H48C96 64 192 64 288 101.3C384 139 480 213 576 240C672 267 768 245 864 213.3C960 181 1056 139 1152 117.3C1248 96 1344 96 1392 96H1440V320H1392C1344 320 1248 320 1152 320C1056 320 960 320 864 320C768 320 672 320 576 320C480 320 384 320 288 320C192 320 96 320 48 320H0V64Z" fill="#0F172A"/>
</g>
<defs>
<clipPath id="clip0_0_1">
<rect width="1440" height="320" fill="white"/>
</clipPath>
</defs>
</svg>
