<svg id="visual" viewBox="0 0 900 600" width="900" height="600" xmlns="http://www.w3.org/2000/svg" xmlns:xlink="http://www.w3.org/1999/xlink" version="1.1"><rect x="0" y="0" width="900" height="600" fill="#eaeaea"></rect><path d="M0 512L10 510C20 508 40 504 60 502.8C80 501.7 100 503.3 120 507.2C140 511 160 517 180 519.3C200 521.7 220 520.3 240 514.3C260 508.3 280 497.7 300 496.5C320 495.3 340 503.7 360 510.8C380 518 400 524 420 526.3C440 528.7 460 527.3 480 521.5C500 515.7 520 505.3 540 499.3C560 493.3 580 491.7 600 494.7C620 497.7 640 505.3 660 506.3C680 507.3 700 501.7 720 499.3C740 497 760 498 780 496.7C800 495.3 820 491.7 840 491C860 490.3 880 492.7 890 493.8L900 495L900 601L890 601C880 601 860 601 840 601C820 601 800 601 780 601C760 601 740 601 720 601C700 601 680 601 660 601C640 601 620 601 600 601C580 601 560 601 540 601C520 601 500 601 480 601C460 601 440 601 420 601C400 601 380 601 360 601C340 601 320 601 300 601C280 601 260 601 240 601C220 601 200 601 180 601C160 601 140 601 120 601C100 601 80 601 60 601C40 601 20 601 10 601L0 601Z" fill="#3F3F46" stroke-linecap="round" stroke-linejoin="miter"></path></svg>