<svg id="visual" viewBox="0 0 900 600" width="900" height="600" xmlns="http://www.w3.org/2000/svg" xmlns:xlink="http://www.w3.org/1999/xlink" version="1.1"><rect x="0" y="0" width="900" height="600" fill="#eaeaea"></rect><path d="M0 419L10 424.2C20 429.3 40 439.7 60 452.2C80 464.7 100 479.3 120 486.3C140 493.3 160 492.7 180 480.8C200 469 220 446 240 441.5C260 437 280 451 300 456.3C320 461.7 340 458.3 360 461.5C380 464.7 400 474.3 420 476.5C440 478.7 460 473.3 480 462.2C500 451 520 434 540 427.2C560 420.3 580 423.7 600 433.2C620 442.7 640 458.3 660 467.7C680 477 700 480 720 482.7C740 485.3 760 487.7 780 489C800 490.3 820 490.7 840 484C860 477.3 880 463.7 890 456.8L900 450L900 601L890 601C880 601 860 601 840 601C820 601 800 601 780 601C760 601 740 601 720 601C700 601 680 601 660 601C640 601 620 601 600 601C580 601 560 601 540 601C520 601 500 601 480 601C460 601 440 601 420 601C400 601 380 601 360 601C340 601 320 601 300 601C280 601 260 601 240 601C220 601 200 601 180 601C160 601 140 601 120 601C100 601 80 601 60 601C40 601 20 601 10 601L0 601Z" fill="#3F3F46" stroke-linecap="round" stroke-linejoin="miter"></path></svg>